<?xml version="1.0" encoding="UTF-8" standalone="no"?>
<svg xmlns:dc="http://purl.org/dc/elements/1.1/" xmlns:cc="http://creativecommons.org/ns#" xmlns:rdf="http://www.w3.org/1999/02/22-rdf-syntax-ns#" xmlns:svg="http://www.w3.org/2000/svg" xmlns="http://www.w3.org/2000/svg" xmlns:sodipodi="http://sodipodi.sourceforge.net/DTD/sodipodi-0.dtd" xmlns:inkscape="http://www.inkscape.org/namespaces/inkscape" width="64px" height="64px" id="svg10786" version="1.1" inkscape:version="0.48.4 r9939" sodipodi:docname="Car Pushpin.svg">
  <defs id="defs10788"/>
  <sodipodi:namedview id="base" pagecolor="#ffffff" bordercolor="#666666" borderopacity="1.0" inkscape:pageopacity="0.0" inkscape:pageshadow="2" inkscape:zoom="2.8" inkscape:cx="54.123737" inkscape:cy="33.681664" inkscape:document-units="px" inkscape:current-layer="layer1" showgrid="false" inkscape:window-width="667" inkscape:window-height="689" inkscape:window-x="683" inkscape:window-y="0" inkscape:window-maximized="0"/>
  
  <g inkscape:label="Layer 1" inkscape:groupmode="layer" id="layer1" transform="translate(0,-952.36218)">
    <path style="font-size:medium;font-style:normal;font-variant:normal;font-weight:normal;font-stretch:normal;text-indent:0;text-align:start;text-decoration:none;line-height:normal;letter-spacing:normal;word-spacing:normal;text-transform:none;direction:ltr;block-progression:tb;writing-mode:lr-tb;text-anchor:start;baseline-shift:baseline;color:#000000;fill:#000000;fill-opacity:1;fill-rule:evenodd;stroke:none;stroke-width:1.01556146;marker:none;visibility:visible;display:inline;overflow:visible;enable-background:accumulate;font-family:Sans;-inkscape-font-specification:Sans" d="m 51.102678,980.45369 c -8.269,0 -15.03125,6.69964 -15.03125,14.96875 1.298,9.83106 8.08425,15.90606 13.90625,23.50006 0.541,0.6877 1.74025,0.6877 2.28125,0 0.601,-0.807 1.37575,-1.7528 2.21875,-2.7812 2.03,0.201 3.867,0.5148 5.25,1 1.06,0.3721 1.89075,0.7806 2.34375,1.1562 0.454,0.3768 0.4375,0.5898 0.4375,0.6563 0,0.066 0.007,0.3115 -0.4375,0.6875 -0.453,0.3767 -1.28375,0.7842 -2.34375,1.1562 -2.12,0.744 -5.196,1.2813 -8.625,1.2813 -3.431,0 -6.5665,-0.5373 -8.6875,-1.2813 -1.06,-0.372 -1.88975,-0.7789 -2.34375,-1.1562 -0.454,-0.376 -0.5,-0.6199 -0.5,-0.6875 0,-0.067 0.048,-0.2795 0.5,-0.6563 0.454,-0.3759 1.28375,-0.7841 2.34375,-1.1562 0.576,-0.2016 1.2335,-0.4674 1.9375,-0.625 l -1.9375,-2.4063 c -0.313,0.094 -0.6435,0.1774 -0.9375,0.2813 -1.277,0.4484 -2.396,0.9792 -3.25,1.6875 -0.854,0.7087 -1.5625,1.6905 -1.5625,2.875 0,1.1855 0.7085,2.1351 1.5625,2.8437 0.854,0.7085 1.973,1.3008 3.25,1.75 2.557,0.8971 5.919,1.4375 9.625,1.4375 4.674,-0.1372 9.13825,-0.7245 12.78125,-3.1875 2.065,-2.0482 1.518,-3.7863 0,-5.7187 -0.854,-0.7083 -1.87825,-1.2391 -3.15625,-1.6875 -1.173,-0.4117 -2.532,-0.7664 -4,-1 1.277,-1.5749 2.59075,-3.2357 3.84375,-5 2.945,-4.1435 5.5,-8.60986 5.5,-12.96886 0,-8.26911 -6.70175,-14.96875 -14.96875,-14.96875 z m -6,6.8125 0.0312,0 11.90625,0 c 0,0 0.48335,-0.0136 0.625,0.4375 l 1,3.21875 0,-1.03125 1.65625,0 0,1.21875 -1.59375,0 c 0.0615,0.1263 0.23731,0.375 0.59375,0.375 l 0.0937,0 c 0,0 0.46875,0 0.46875,0.4688 l 0,2.1875 c 0,0 0.0353,0.4687 -0.25,0.4687 0,0 -0.28125,0 -0.28125,0.4688 l 0,0.125 c 0,0 -0.0125,0.076 -0.0625,0.1875 l 0.125,0 c 0.46874,0 0.46875,0.5 0.46875,0.5 l 0,5.53116 c 0,0.4739 -0.46875,0.4689 -0.46875,0.4689 l -1.8125,0 c -0.47574,0 -0.46875,-0.4689 -0.46875,-0.4689 l 0,-1.87496 -3.09375,0 c 0.009,0.051 0.0312,0.094 0.0312,0.094 0,0.47376 -0.46875,0.46876 -0.46875,0.46876 l -4.9375,0 c -0.47581,0 -0.46875,-0.46876 -0.46875,-0.46876 l 0,-0.094 -3.15625,0 0,1.87496 c 2.1e-4,0.4739 -0.46875,0.4689 -0.46875,0.4689 l -1.78125,0 c -0.4732,0 -0.5,-0.4689 -0.5,-0.4689 l 0,-5.53116 c 0,-0.4727 0.5,-0.5 0.5,-0.5 l 0.125,0 c -0.0291,-0.058 0,-0.1003 0,-0.1875 l 0,-0.062 c 0,0 -0.0193,-0.4688 -0.4375,-0.4688 0,0 -0.40625,0 -0.40625,-0.4687 l 0,-1.8438 c 0,0 -0.004,-0.4687 0.46875,-0.4687 l 0.125,0 c 0,0 0.44638,-0.019 0.59375,-0.4688 l 0.125,-0.3125 -1.5625,0 0,-1.21875 1.65625,0 0,0.96875 1.03125,-3.15625 c 0,0 0.14731,-0.41706 0.59375,-0.4375 z m 0.6875,1.375 -0.625,2.43755 11.5625,0 -0.65625,-2.43755 -10.28125,0 z m 0.375,3.68755 c -0.48932,0 -0.875,0.3852 -0.875,0.875 0,0.4897 0.38568,0.875 0.875,0.875 0.48981,0 0.90625,-0.3855 0.90625,-0.875 0,-0.4898 -0.41644,-0.875 -0.90625,-0.875 z m 9.75,0 c -0.48953,0 -0.875,0.3852 -0.875,0.875 0,0.4897 0.38562,0.875 0.875,0.875 0.48996,0 0.875,-0.3855 0.875,-0.875 0,-0.4898 -0.38525,-0.875 -0.875,-0.875 z m -12.75,0.4062 0,0.9375 1.28125,0 0,-0.9375 -1.28125,0 z m 14.53125,0 0,0.9375 1.28125,0 0,-0.9375 -1.28125,0 z" id="rect6641-3-4-3" inkscape:connector-curvature="0"/>
  </g>

	
	
	<metadata>
		<rdf:RDF xmlns:rdf="http://www.w3.org/1999/02/22-rdf-syntax-ns#" xmlns:rdfs="http://www.w3.org/2000/01/rdf-schema#" xmlns:dc="http://purl.org/dc/elements/1.1/">
			<rdf:Description about="https://iconscout.com/legal#licenses" dc:title="Car, Pushpin, Location, Navigation" dc:description="Car, Pushpin, Location, Navigation" dc:publisher="Iconscout" dc:date="2016-12-14" dc:format="image/svg+xml" dc:language="en">
				<dc:creator>
					<rdf:Bag>
						<rdf:li>Dalpat Prajapati</rdf:li>
					</rdf:Bag>
				</dc:creator>
			</rdf:Description>
		</rdf:RDF>
    </metadata></svg>
