<svg xmlns="http://www.w3.org/2000/svg" xmlns:xlink="http://www.w3.org/1999/xlink" viewBox="0 0 64 64"><defs><linearGradient id="b" x1="24.52" x2="24.52" y1="8.75" y2="42.29" gradientUnits="userSpaceOnUse"><stop offset="0" stop-color="#cf1d37"/><stop offset="1" stop-color="#cf0018"/></linearGradient><linearGradient id="c" x1="38.67" x2="38.67" y1="22" y2="58.5" gradientUnits="userSpaceOnUse"><stop offset="0" stop-color="#ff4d6c"/><stop offset="1" stop-color="#ff0825"/></linearGradient><linearGradient id="a" x1="49.48" x2="57" y1="30.45" y2="30.45" gradientUnits="userSpaceOnUse"><stop offset="0" stop-color="#000406"/><stop offset="1" stop-color="#001521"/></linearGradient><linearGradient id="d" x1="3.03" x2="61" y1="33.62" y2="33.62" xlink:href="#a"/><linearGradient id="e" x1="7.07" x2="14.18" y1="16.41" y2="16.41" xlink:href="#a"/></defs><g data-name="Layer 2"><path fill="url(#b)" d="M42.51,11.29c-5.88-4.88-12.81-2.15-18,3.33-5.18-5.48-12.11-8.22-18-3.33-7,5.78-3.69,23.76,11.8,30.65a27.13,27.13,0,0,0,4.53.35c11,0,18.54-5.75,22.46-17.13l0-.08C46.84,19.27,45.76,14,42.51,11.29Z"/><path fill="url(#c)" d="M57.38,24.64a10.49,10.49,0,0,0-8-2.59c-5,.5-9.1,4.33-10.76,6.09-1.66-1.76-5.79-5.59-10.76-6.09A10.53,10.53,0,0,0,20,24.64c-3.32,2.75-4.46,8.15-3,14.09,1.93,7.78,8.59,17.05,21.5,19.75a.94.94,0,0,0,.41,0c12.9-2.7,19.56-12,21.49-19.75C61.84,32.79,60.7,27.39,57.38,24.64Z"/></g><g data-name="Layer 3"><path fill="url(#a)" d="M50.48,28a4.73,4.73,0,0,1,3.07,1.26C54.48,30,55,31.75,55,33.88a1,1,0,0,0,1,1h0a1,1,0,0,0,1-1c0-2.8-.74-5-2.17-6.18A6.65,6.65,0,0,0,50.48,26a1,1,0,1,0,0,2Z"/><path fill="url(#d)" d="M17.94,41.76c2.76,7,9.26,14.36,20.53,16.72a.94.94,0,0,0,.41,0c12.9-2.7,19.56-12,21.49-19.75,1.47-5.94.33-11.34-3-14.09A10.64,10.64,0,0,0,45.77,23c.78-5-.4-9.36-3.26-11.73a10.16,10.16,0,0,0-7.67-2.5c-4.75.48-8.71,4.12-10.33,5.83-1.61-1.71-5.57-5.35-10.32-5.83a10.14,10.14,0,0,0-7.67,2.5c-2.74,2.27-4,6.52-3.31,11.37A25.34,25.34,0,0,0,17.94,41.76ZM49.63,24a8.54,8.54,0,0,1,6.47,2.14c2.72,2.25,3.62,6.88,2.33,12.07-1.77,7.15-7.89,15.66-19.76,18.23-11.87-2.57-18-11.08-19.76-18.23-1.28-5.19-.39-9.82,2.33-12.07A8.6,8.6,0,0,1,27.71,24c5.5.54,10.14,6.18,10.18,6.24a1,1,0,0,0,1.56,0C39.49,30.22,44.11,24.59,49.63,24ZM7.79,12.83A8.18,8.18,0,0,1,14,10.78c5.27.52,9.71,5.92,9.76,6a1,1,0,0,0,1.55,0c0-.06,4.48-5.46,9.76-6a8.16,8.16,0,0,1,6.18,2.05c2.54,2.1,3.41,6.53,2.26,11.35a24.1,24.1,0,0,0-4.82,4C33.3,22.43,26.08,19.56,20,24.64,16,27.9,15.74,34,17.07,39.07A23.16,23.16,0,0,1,5.19,22.38C4.61,18.23,5.59,14.65,7.79,12.83Z"/><path fill="url(#e)" d="M8,20.08a1,1,0,0,0,1.08-.91,4.83,4.83,0,0,1,1.29-3.27,4.32,4.32,0,0,1,2.83-1.16,1,1,0,0,0,0-2,6.26,6.26,0,0,0-4.11,1.63,6.66,6.66,0,0,0-2,4.63A1,1,0,0,0,8,20.08Z"/></g></svg>