<svg xmlns="http://www.w3.org/2000/svg" width="32" height="32" viewBox="0 0 8.467 8.467"><g fill="#542471" transform="translate(109.764 -330.721)"><path fill="#ff67c7" d="m -106.38252,330.90485 c -0.34099,0 -0.68299,0.13178 -0.94238,0.39168 -0.51874,0.5198 -0.51874,1.36497 0,1.88477 l 1.70463,1.70856 c 0.0491,0.0493 0.12907,0.0493 0.17818,0 l 1.70463,-1.70856 c 0.51877,-0.5198 0.51877,-1.36497 0,-1.88477 -0.49421,-0.49521 -1.27448,-0.51193 -1.79397,-0.0844 -0.21944,-0.18268 -0.47094,-0.30528 -0.85109,-0.30726 z" color="#000" font-family="sans-serif" font-weight="400" overflow="visible" white-space="normal" style="line-height:normal;font-variant-ligatures:normal;font-variant-position:normal;font-variant-caps:normal;font-variant-numeric:normal;font-variant-alternates:normal;font-feature-settings:normal;text-indent:0;text-align:start;text-decoration-line:none;text-decoration-style:solid;text-decoration-color:#000;text-transform:none;text-orientation:mixed;shape-padding:0;isolation:auto;mix-blend-mode:normal"/><path fill-rule="evenodd" style="line-height:normal;font-variant-ligatures:normal;font-variant-position:normal;font-variant-caps:normal;font-variant-numeric:normal;font-variant-alternates:normal;font-feature-settings:normal;text-indent:0;text-align:start;text-decoration-line:none;text-decoration-style:solid;text-decoration-color:#000;text-transform:none;text-orientation:mixed;shape-padding:0;isolation:auto;mix-blend-mode:normal" d="m -107.45628,334.09258 c -0.005,0.37959 -0.0972,0.94519 -0.0972,0.94519 -0.0277,0.17392 -0.28981,0.1339 -0.26215,-0.04 0,0 0.0896,-0.56827 0.0944,-0.90759 -0.003,-0.12211 -0.096,-0.17052 -0.15082,-0.17228 -0.0473,-0.005 -0.0905,0.009 -0.12408,0.037 -0.12111,0.11455 -0.18177,-0.0772 -0.16947,-0.20264 0.0875,-0.0724 0.20463,-0.11052 0.32619,-0.0969 0.25591,0.0322 0.38397,0.24043 0.38313,0.43725 z" color="#000" font-family="sans-serif" font-weight="400" overflow="visible" white-space="normal"/><path fill-rule="evenodd" style="line-height:normal;font-variant-ligatures:normal;font-variant-position:normal;font-variant-caps:normal;font-variant-numeric:normal;font-variant-alternates:normal;font-feature-settings:normal;text-indent:0;text-align:start;text-decoration-line:none;text-decoration-style:solid;text-decoration-color:#000;text-transform:none;text-orientation:mixed;shape-padding:0;isolation:auto;mix-blend-mode:normal" d="m -107.92891,333.53172 c -0.0217,0.43476 -0.0946,1.28939 -0.0946,1.28939 -0.015,0.17549 -0.27956,0.15439 -0.2646,-0.0211 0,0 0.0731,-0.8576 0.0942,-1.27996 -0.007,-0.1313 -0.11594,-0.20687 -0.33305,-0.12112 -0.18131,0.0309 -0.2147,-0.21515 -0.0408,-0.27483 0.17854,-0.0613 0.32756,-0.0481 0.45588,0.0427 0.0943,0.0755 0.18764,0.18454 0.18294,0.36495 z" color="#000" font-family="sans-serif" font-weight="400" overflow="visible" white-space="normal"/><path fill-rule="evenodd" style="line-height:normal;font-variant-ligatures:normal;font-variant-position:normal;font-variant-caps:normal;font-variant-numeric:normal;font-variant-alternates:normal;font-feature-settings:normal;text-indent:0;text-align:start;text-decoration-line:none;text-decoration-style:solid;text-decoration-color:#000;text-transform:none;text-orientation:mixed;shape-padding:0;isolation:auto;mix-blend-mode:normal" d="m -108.45125,333.02009 c -0.005,0.35922 0.006,1.85247 0.006,1.85247 a 0.13186105,0.13283587 69.999966 1 1 -0.26543,0.004 c 0,0 -0.0111,-1.48397 -0.006,-1.85848 10e-4,-0.0795 -0.0917,-0.16732 -0.14516,-0.17216 -0.0588,-0.005 -0.098,0.0145 -0.13262,0.0483 -0.0346,0.0338 -0.0553,0.0859 -0.057,0.10648 -0.0628,0.74622 -0.17443,2.24302 -0.17443,2.24302 -0.0298,0.41409 0.0215,1.00086 0.23048,1.49327 0.2197,0.51778 0.81315,0.89867 1.19734,1.4532 0.0804,0.11607 0.14477,0.27076 0.19475,0.40205 0.0505,0.13109 0.0829,0.23852 0.0829,0.23852 a 0.13181853,0.13279303 69.999966 1 1 -0.25376,0.0782 c 0,0 -0.0307,-0.099 -0.0774,-0.22195 -0.0475,-0.12265 -0.11244,-0.27024 -0.16508,-0.34622 -0.34044,-0.49136 -0.95863,-0.87652 -1.2232,-1.50004 -0.23161,-0.54585 -0.2831,-1.16273 -0.25052,-1.61486 0,0 0.11128,-1.49675 0.17435,-2.24626 0.008,-0.1001 0.0551,-0.19479 0.13545,-0.27321 0.0803,-0.0784 0.20341,-0.13611 0.3435,-0.12337 0.21653,0.0196 0.38864,0.20667 0.38537,0.43752 z" color="#000" font-family="sans-serif" font-weight="400" overflow="visible" white-space="normal"/><path fill-rule="evenodd" style="line-height:normal;font-variant-ligatures:normal;font-variant-position:normal;font-variant-caps:normal;font-variant-numeric:normal;font-variant-alternates:normal;font-feature-settings:normal;text-indent:0;text-align:start;text-decoration-line:none;text-decoration-style:solid;text-decoration-color:#000;text-transform:none;text-orientation:mixed;shape-padding:0;isolation:auto;mix-blend-mode:normal" d="M-108.18945 335.08008c-.10911-.0174-.20815.009-.29688.0391a.13230487.13230487 0 0 0-.0137.004c-.10611.05-.19223.14183-.22461.25781-.0324.11597-.0134.24657.0469.37891a.13230487.13230487 0 0 0 .006.0117l.74415 1.26758a.13264339.13264339 0 1 0 .22851-.13476l-.73828-1.25586v-.002c-.0411-.0914-.0442-.15403-.0332-.19336.0106-.0379.0344-.063.0801-.0859.0653-.0213.11881-.032.16015-.0254.0439.007.0881.0272.15039.0996l.73242.85156a.13230487.13230487 0 0 0 .0137.0137l.55859.4707c.14325.12053.24396.28268.2832.46289.001.008.13661.82838.2168 1.2461.0271.14055.0859.41015.0859.41015a.1329317.1329317 0 1 0 .25976-.0566c0 0-.0606-.27266-.0859-.40429-.0788-.41046-.2168-1.24414-.2168-1.24414a.13230487.13230487 0 0 0 0-.008c-.0522-.23972-.18688-.45274-.37305-.60937l-.54883-.46289-.72656-.84375c-.0919-.10686-.19949-.17008-.30859-.1875zM-103.60485 334.09258c.005.37959.0972.94519.0972.94519.0277.17392.28981.1339.26215-.04 0 0-.0896-.56827-.0944-.90759.003-.12211.096-.17052.15082-.17228.0473-.005.0905.009.12408.037.12111.11455.18177-.0772.16947-.20264-.0875-.0724-.20463-.11052-.32619-.0969-.25591.0322-.38397.24043-.38313.43725z" color="#000" font-family="sans-serif" font-weight="400" overflow="visible" white-space="normal"/><path fill-rule="evenodd" d="m -103.13222,333.53172 c 0.0217,0.43476 0.0946,1.28939 0.0946,1.28939 0.015,0.17549 0.27956,0.15439 0.2646,-0.0211 0,0 -0.0731,-0.8576 -0.0942,-1.27996 0.007,-0.1313 0.11594,-0.20687 0.33305,-0.12112 0.18131,0.0309 0.2147,-0.21515 0.0408,-0.27483 -0.17854,-0.0613 -0.32756,-0.0481 -0.45588,0.0427 -0.0943,0.0755 -0.18764,0.18454 -0.18294,0.36495 z" color="#000" font-family="sans-serif" font-weight="400" overflow="visible" white-space="normal" style="line-height:normal;font-variant-ligatures:normal;font-variant-position:normal;font-variant-caps:normal;font-variant-numeric:normal;font-variant-alternates:normal;font-feature-settings:normal;text-indent:0;text-align:start;text-decoration-line:none;text-decoration-style:solid;text-decoration-color:#000;text-transform:none;text-orientation:mixed;shape-padding:0;isolation:auto;mix-blend-mode:normal"/><path fill-rule="evenodd" d="m -102.60988,333.02009 c 0.005,0.35922 -0.006,1.85247 -0.006,1.85247 a 0.13283587,0.13186105 20.000034 1 0 0.26543,0.004 c 0,0 0.0111,-1.48397 0.006,-1.85848 -0.001,-0.0795 0.0917,-0.16732 0.14516,-0.17216 0.0588,-0.005 0.098,0.0145 0.13262,0.0483 0.0346,0.0338 0.0553,0.0859 0.057,0.10648 0.0628,0.74622 0.17443,2.24302 0.17443,2.24302 0.0298,0.41409 -0.0215,1.00086 -0.23048,1.49327 -0.2197,0.51778 -0.81315,0.89867 -1.19734,1.4532 -0.0804,0.11607 -0.14477,0.27076 -0.19475,0.40205 -0.0505,0.13109 -0.0829,0.23852 -0.0829,0.23852 a 0.13279303,0.13181853 20.000034 1 0 0.25376,0.0782 c 0,0 0.0307,-0.099 0.0774,-0.22195 0.0475,-0.12265 0.11244,-0.27024 0.16508,-0.34622 0.34044,-0.49136 0.95863,-0.87652 1.2232,-1.50004 0.23161,-0.54585 0.2831,-1.16273 0.25052,-1.61486 0,0 -0.11128,-1.49675 -0.17435,-2.24626 -0.008,-0.1001 -0.0551,-0.19479 -0.13545,-0.27321 -0.0803,-0.0784 -0.20341,-0.13611 -0.3435,-0.12337 -0.21653,0.0196 -0.38864,0.20667 -0.38537,0.43752 z" color="#000" font-family="sans-serif" font-weight="400" overflow="visible" white-space="normal" style="line-height:normal;font-variant-ligatures:normal;font-variant-position:normal;font-variant-caps:normal;font-variant-numeric:normal;font-variant-alternates:normal;font-feature-settings:normal;text-indent:0;text-align:start;text-decoration-line:none;text-decoration-style:solid;text-decoration-color:#000;text-transform:none;text-orientation:mixed;shape-padding:0;isolation:auto;mix-blend-mode:normal"/><path fill-rule="evenodd" d="m -102.87168,335.08008 c 0.10911,-0.0174 0.20815,0.009 0.29688,0.0391 a 0.13230487,0.13230487 0 0 1 0.0137,0.004 c 0.10611,0.05 0.19223,0.14183 0.22461,0.25781 0.0324,0.11597 0.0134,0.24657 -0.0469,0.37891 a 0.13230487,0.13230487 0 0 1 -0.006,0.0117 l -0.74415,1.26758 a 0.13264339,0.13264339 0 1 1 -0.22851,-0.13476 l 0.73828,-1.25586 v -0.002 c 0.0411,-0.0914 0.0442,-0.15403 0.0332,-0.19336 -0.0106,-0.0379 -0.0344,-0.063 -0.0801,-0.0859 -0.0653,-0.0213 -0.11881,-0.032 -0.16015,-0.0254 -0.0439,0.007 -0.0881,0.0272 -0.15039,0.0996 l -0.73242,0.85156 a 0.13230487,0.13230487 0 0 1 -0.0137,0.0137 l -0.55859,0.4707 c -0.14325,0.12053 -0.24396,0.28268 -0.2832,0.46289 -0.001,0.008 -0.13661,0.82838 -0.2168,1.2461 -0.0271,0.14055 -0.0859,0.41015 -0.0859,0.41015 a 0.1329317,0.1329317 0 1 1 -0.25976,-0.0566 c 0,0 0.0606,-0.27266 0.0859,-0.40429 0.0788,-0.41046 0.2168,-1.24414 0.2168,-1.24414 a 0.13230487,0.13230487 0 0 1 0,-0.008 c 0.0522,-0.23972 0.18688,-0.45274 0.37305,-0.60937 l 0.54883,-0.46289 0.72656,-0.84375 c 0.0919,-0.10686 0.19949,-0.17008 0.30859,-0.1875 z" color="#000" font-family="sans-serif" font-weight="400" overflow="visible" white-space="normal" style="line-height:normal;font-variant-ligatures:normal;font-variant-position:normal;font-variant-caps:normal;font-variant-numeric:normal;font-variant-alternates:normal;font-feature-settings:normal;text-indent:0;text-align:start;text-decoration-line:none;text-decoration-style:solid;text-decoration-color:#000;text-transform:none;text-orientation:mixed;shape-padding:0;isolation:auto;mix-blend-mode:normal"/></g></svg>