<?xml version="1.0" encoding="UTF-8" standalone="no"?>
<svg xmlns:dc="http://purl.org/dc/elements/1.1/" xmlns:cc="http://creativecommons.org/ns#" xmlns:rdf="http://www.w3.org/1999/02/22-rdf-syntax-ns#" xmlns:svg="http://www.w3.org/2000/svg" xmlns="http://www.w3.org/2000/svg" xmlns:sodipodi="http://sodipodi.sourceforge.net/DTD/sodipodi-0.dtd" xmlns:inkscape="http://www.inkscape.org/namespaces/inkscape" width="64" height="64" viewBox="0 0 64.000001 64.000001" id="svg2" version="1.1" inkscape:version="0.91 r13725" sodipodi:docname="2.svg">
  <defs id="defs4"/>
  <sodipodi:namedview id="base" pagecolor="#ffffff" bordercolor="#666666" borderopacity="1.0" inkscape:pageopacity="0.0" inkscape:pageshadow="2" inkscape:zoom="2.8" inkscape:cx="-60.845937" inkscape:cy="-7.732812" inkscape:document-units="px" inkscape:current-layer="layer1" showgrid="true" units="px" inkscape:window-width="1366" inkscape:window-height="715" inkscape:window-x="-8" inkscape:window-y="-8" inkscape:window-maximized="1" inkscape:snap-bbox="true" inkscape:bbox-paths="true" inkscape:bbox-nodes="true" inkscape:snap-bbox-midpoints="true" inkscape:snap-bbox-edge-midpoints="true">
    <inkscape:grid type="xygrid" id="grid3336"/>
  </sodipodi:namedview>
  
  <g inkscape:label="Layer 1" inkscape:groupmode="layer" id="layer1" transform="translate(0,-988.36216)">
    <g id="g9592" transform="translate(506.89913,-759.02768)">
      <path sodipodi:nodetypes="cccc" inkscape:connector-curvature="0" id="path8044" d="m -478.12536,1767.3884 16.2635,16.2634 -38.53737,22.2739 z" style="fill:#f8b545;fill-opacity:1;stroke:#f8b545;stroke-width:0.99999994;stroke-linecap:round;stroke-linejoin:round;stroke-opacity:1"/>
      <path inkscape:connector-curvature="0" id="path8046" d="m -479.86088,1770.3904 -1.06445,1.8418 a 1.0001,1.0001 0 0 0 0.41602,0.1191 l 6.76367,0.4453 a 1.0001924,1.0001924 0 0 0 0.75586,-0.2734 l -1.80078,-1.7988 -5.07032,-0.334 z m -3.34765,5.793 -1.07617,1.8613 a 1.0001,1.0001 0 0 0 0.37109,0.096 l 16.57031,1.0898 a 1.0001,1.0001 0 0 0 0.79297,-0.2675 l -1.80273,-1.8008 -14.85547,-0.9785 z m -3.34766,5.7929 -1.09375,1.8926 a 1.0001,1.0001 0 0 0 0.27539,0.057 l 22.48047,1.4786 2.52539,-1.459 a 1.0001,1.0001 0 0 0 -0.79687,-0.4297 l -23.39063,-1.5391 z m -3.34961,5.793 -1.07812,1.8652 c 0.10613,0.045 0.21991,0.082 0.35547,0.09 l 8.91797,0.5859 7.48046,0.4902 3.04493,-1.7597 c -0.0748,-0.021 -0.13925,-0.055 -0.22657,-0.061 l -10.16797,-0.664 -8.32617,-0.5469 z m -3.34765,5.7949 -1.06446,1.8379 c 0.12374,0.066 0.26754,0.1111 0.4375,0.1211 l 10.24414,0.7129 3.09571,-1.7891 -12.71289,-0.8828 z m -3.34961,5.793 -1.07422,1.8594 c 0.11127,0.05 0.23395,0.087 0.3789,0.096 l 4.33594,0.3144 3.08399,-1.7832 -6.72461,-0.4863 z" style="color:#000000;font-style:normal;font-variant:normal;font-weight:normal;font-stretch:normal;font-size:medium;line-height:normal;font-family:sans-serif;text-indent:0;text-align:start;text-decoration:none;text-decoration-line:none;text-decoration-style:solid;text-decoration-color:#000000;letter-spacing:normal;word-spacing:normal;text-transform:none;direction:ltr;block-progression:tb;writing-mode:lr-tb;baseline-shift:baseline;text-anchor:start;white-space:normal;clip-rule:nonzero;display:inline;overflow:visible;visibility:visible;opacity:1;isolation:auto;mix-blend-mode:normal;color-interpolation:sRGB;color-interpolation-filters:linearRGB;solid-color:#000000;solid-opacity:1;fill:#fecb5b;fill-opacity:1;fill-rule:evenodd;stroke:none;stroke-width:2;stroke-linecap:round;stroke-linejoin:round;stroke-miterlimit:4;stroke-dasharray:none;stroke-dashoffset:0;stroke-opacity:1;color-rendering:auto;image-rendering:auto;shape-rendering:auto;text-rendering:auto;enable-background:accumulate"/>
      <path sodipodi:open="true" d="m -472.29027,1758.9579 a 9.25,9.25 0 0 1 2.88779,6.9661 9.25,9.25 0 0 1 -3.25779,6.8011" sodipodi:end="0.86656863" sodipodi:start="5.4703546" sodipodi:ry="9.25" sodipodi:rx="9.25" sodipodi:cy="1765.6755" sodipodi:cx="-478.64914" sodipodi:type="arc" id="path7091" style="fill:none;stroke:#3a90cd;stroke-width:1;stroke-linecap:round;stroke-linejoin:round;stroke-opacity:1"/>
      <path style="fill:none;stroke:#004463;stroke-width:0.99999994;stroke-linecap:round;stroke-linejoin:round;stroke-opacity:1" d="m -478.12536,1767.3884 16.2635,16.2634 -38.53737,22.2739 z" id="path7107" inkscape:connector-curvature="0" sodipodi:nodetypes="cccc"/>
      <path sodipodi:open="true" d="m -464.39314,1776.9218 a 12.9818,12.974656 0 0 1 13.988,-0" sodipodi:end="5.2810785" sodipodi:start="4.1431636" sodipodi:ry="12.974656" sodipodi:rx="12.9818" sodipodi:cy="1787.8506" sodipodi:cx="-457.39621" sodipodi:type="arc" id="path7109" style="fill:none;stroke:#3a90cd;stroke-width:1;stroke-linecap:round;stroke-linejoin:round;stroke-opacity:1"/>
      <path transform="matrix(0,1,-1,0,0,0)" sodipodi:open="true" d="m 1756.9255,486.40622 a 1.5,1.5 0 0 1 -0.75,1.29904 1.5,1.5 0 0 1 -1.5,0 1.5,1.5 0 0 1 -0.75,-1.29904" sodipodi:end="3.1415927" sodipodi:start="0" sodipodi:ry="1.5" sodipodi:rx="1.5" sodipodi:cy="486.40622" sodipodi:cx="1755.4255" sodipodi:type="arc" id="path7113" style="fill:none;stroke:#ed4a4b;stroke-width:1;stroke-linecap:round;stroke-linejoin:round;stroke-opacity:1"/>
      <path transform="matrix(0,1,-1,0,0,0)" sodipodi:open="true" d="m 1759.9255,486.40622 a 1.5,1.5 0 0 1 -0.75,1.29904 1.5,1.5 0 0 1 -1.5,0 1.5,1.5 0 0 1 -0.75,-1.29904" sodipodi:end="3.1415927" sodipodi:start="0" sodipodi:ry="1.5" sodipodi:rx="1.5" sodipodi:cy="486.40622" sodipodi:cx="1758.4255" sodipodi:type="arc" style="fill:none;stroke:#ed4a4b;stroke-width:1;stroke-linecap:round;stroke-linejoin:round;stroke-opacity:1" id="path7115"/>
      <path transform="matrix(0,1,-1,0,0,0)" sodipodi:open="true" d="m 1762.9255,486.40622 a 1.5,1.5 0 0 1 -0.75,1.29904 1.5,1.5 0 0 1 -1.5,0 1.5,1.5 0 0 1 -0.75,-1.29904" sodipodi:end="3.1415927" sodipodi:start="0" sodipodi:ry="1.5" sodipodi:rx="1.5" sodipodi:cy="486.40622" sodipodi:cx="1761.4255" sodipodi:type="arc" style="fill:none;stroke:#ed4a4b;stroke-width:1;stroke-linecap:round;stroke-linejoin:round;stroke-opacity:1" id="path7117"/>
      <path transform="matrix(0,1,-1,0,0,0)" sodipodi:open="true" d="m 1765.9255,486.40622 a 1.5,1.5 0 0 1 -0.75,1.29904 1.5,1.5 0 0 1 -1.5,0 1.5,1.5 0 0 1 -0.75,-1.29904" sodipodi:end="3.1415927" sodipodi:start="0" sodipodi:ry="1.5" sodipodi:rx="1.5" sodipodi:cy="486.40622" sodipodi:cx="1764.4255" sodipodi:type="arc" id="path7119" style="fill:none;stroke:#ed4a4b;stroke-width:1;stroke-linecap:round;stroke-linejoin:round;stroke-opacity:1"/>
      <path transform="matrix(0.8660254,-0.5,0.5,0.8660254,0,0)" style="fill:none;stroke:#ed4a4b;stroke-width:1;stroke-linecap:round;stroke-linejoin:round;stroke-opacity:1" id="path7123" sodipodi:type="arc" sodipodi:cx="-1283.0507" sodipodi:cy="1298.923" sodipodi:rx="1.5" sodipodi:ry="1.5" sodipodi:start="0" sodipodi:end="3.1415927" d="m -1281.5507,1298.923 a 1.5,1.5 0 0 1 -0.75,1.299 1.5,1.5 0 0 1 -1.5,0 1.5,1.5 0 0 1 -0.75,-1.299" sodipodi:open="true"/>
      <path transform="matrix(0.8660254,-0.5,0.5,0.8660254,0,0)" id="path7125" style="fill:none;stroke:#ed4a4b;stroke-width:1;stroke-linecap:round;stroke-linejoin:round;stroke-opacity:1" sodipodi:type="arc" sodipodi:cx="-1280.0507" sodipodi:cy="1298.923" sodipodi:rx="1.5" sodipodi:ry="1.5" sodipodi:start="0" sodipodi:end="3.1415927" d="m -1278.5507,1298.923 a 1.5,1.5 0 0 1 -0.75,1.299 1.5,1.5 0 0 1 -1.5,0 1.5,1.5 0 0 1 -0.75,-1.299" sodipodi:open="true"/>
      <path transform="matrix(0.8660254,-0.5,0.5,0.8660254,0,0)" id="path7127" style="fill:none;stroke:#ed4a4b;stroke-width:1;stroke-linecap:round;stroke-linejoin:round;stroke-opacity:1" sodipodi:type="arc" sodipodi:cx="-1277.0507" sodipodi:cy="1298.923" sodipodi:rx="1.5" sodipodi:ry="1.5" sodipodi:start="0" sodipodi:end="3.1415927" d="m -1275.5507,1298.923 a 1.5,1.5 0 0 1 -0.75,1.299 1.5,1.5 0 0 1 -1.5,0 1.5,1.5 0 0 1 -0.75,-1.299" sodipodi:open="true"/>
      <path transform="matrix(0.8660254,-0.5,0.5,0.8660254,0,0)" style="fill:none;stroke:#ed4a4b;stroke-width:1;stroke-linecap:round;stroke-linejoin:round;stroke-opacity:1" id="path7129" sodipodi:type="arc" sodipodi:cx="-1274.0507" sodipodi:cy="1298.923" sodipodi:rx="1.5" sodipodi:ry="1.5" sodipodi:start="0" sodipodi:end="3.1415927" d="m -1272.5507,1298.923 a 1.5,1.5 0 0 1 -0.75,1.299 1.5,1.5 0 0 1 -1.5,0 1.5,1.5 0 0 1 -0.75,-1.299" sodipodi:open="true"/>
      <path transform="matrix(-0.8660254,0.5,-0.5,-0.8660254,0,0)" sodipodi:open="true" d="m 1306.9698,-1322.9297 a 1.5,1.5 0 0 1 -0.75,1.2991 1.5,1.5 0 0 1 -1.5,0 1.5,1.5 0 0 1 -0.75,-1.2991" sodipodi:end="3.1415927" sodipodi:start="0" sodipodi:ry="1.5" sodipodi:rx="1.5" sodipodi:cy="-1322.9297" sodipodi:cx="1305.4698" sodipodi:type="arc" id="path7133" style="fill:none;stroke:#ed4a4b;stroke-width:1;stroke-linecap:round;stroke-linejoin:round;stroke-opacity:1"/>
      <path transform="matrix(-0.8660254,0.5,-0.5,-0.8660254,0,0)" sodipodi:open="true" d="m 1309.9698,-1322.9297 a 1.5,1.5 0 0 1 -0.75,1.2991 1.5,1.5 0 0 1 -1.5,0 1.5,1.5 0 0 1 -0.75,-1.2991" sodipodi:end="3.1415927" sodipodi:start="0" sodipodi:ry="1.5" sodipodi:rx="1.5" sodipodi:cy="-1322.9297" sodipodi:cx="1308.4698" sodipodi:type="arc" style="fill:none;stroke:#ed4a4b;stroke-width:1;stroke-linecap:round;stroke-linejoin:round;stroke-opacity:1" id="path7135"/>
      <path transform="matrix(-0.8660254,0.5,-0.5,-0.8660254,0,0)" sodipodi:open="true" d="m 1312.9698,-1322.9297 a 1.5,1.5 0 0 1 -0.75,1.2991 1.5,1.5 0 0 1 -1.5,0 1.5,1.5 0 0 1 -0.75,-1.2991" sodipodi:end="3.1415927" sodipodi:start="0" sodipodi:ry="1.5" sodipodi:rx="1.5" sodipodi:cy="-1322.9297" sodipodi:cx="1311.4698" sodipodi:type="arc" style="fill:none;stroke:#ed4a4b;stroke-width:1;stroke-linecap:round;stroke-linejoin:round;stroke-opacity:1" id="path7137"/>
      <path transform="matrix(-0.8660254,0.5,-0.5,-0.8660254,0,0)" sodipodi:open="true" d="m 1315.9698,-1322.9297 a 1.5,1.5 0 0 1 -0.75,1.2991 1.5,1.5 0 0 1 -1.5,0 1.5,1.5 0 0 1 -0.75,-1.2991" sodipodi:end="3.1415927" sodipodi:start="0" sodipodi:ry="1.5" sodipodi:rx="1.5" sodipodi:cy="-1322.9297" sodipodi:cx="1314.4698" sodipodi:type="arc" id="path7139" style="fill:none;stroke:#ed4a4b;stroke-width:1;stroke-linecap:round;stroke-linejoin:round;stroke-opacity:1"/>
      <circle r="1.5" cy="1762.4255" cx="-476.89914" id="circle7141" style="fill:none;stroke:#3a90cd;stroke-linecap:round;stroke-linejoin:round;stroke-opacity:1"/>
      <circle style="fill:none;stroke:#fecb5b;stroke-linecap:round;stroke-linejoin:round;stroke-opacity:1" id="circle7143" cx="-463.89914" cy="1758.4255" r="1.5"/>
      <circle r="1.5" cy="1781.4255" cx="-455.89914" id="circle7145" style="fill:none;stroke:#fecb5b;stroke-linecap:round;stroke-linejoin:round;stroke-opacity:1"/>
      <circle style="fill:none;stroke:#3a90cd;stroke-linecap:round;stroke-linejoin:round;stroke-opacity:1" id="circle7147" cx="-457.89914" cy="1794.4257" r="1.5"/>
      <circle r="1.5" cy="1779.4255" cx="-493.89914" id="circle7149" style="fill:none;stroke:#fecb5b;stroke-linecap:round;stroke-linejoin:round;stroke-opacity:1"/>
      <circle r="0.5" cy="1771.9255" cx="-488.39914" id="circle7151" style="fill:#ed4a4b;fill-opacity:1;stroke:none;stroke-linecap:round;stroke-linejoin:round;stroke-opacity:1"/>
      <circle r="0.5" cy="1773.9255" cx="-466.39914" id="circle7153" style="fill:#3a90cd;fill-opacity:1;stroke:none;stroke-linecap:round;stroke-linejoin:round;stroke-opacity:1"/>
      <circle r="0.5" cy="1769.9255" cx="-451.39914" id="circle7155" style="fill:#3a90cd;fill-opacity:1;stroke:none;stroke-linecap:round;stroke-linejoin:round;stroke-opacity:1"/>
      <circle r="0.5" cy="1789.9257" cx="-464.39914" id="circle7157" style="fill:#fecb5b;fill-opacity:1;stroke:none;stroke-linecap:round;stroke-linejoin:round;stroke-opacity:1"/>
      <circle r="0.5" cy="1800.9257" cx="-464.39914" id="circle7159" style="fill:#3a90cd;fill-opacity:1;stroke:none;stroke-linecap:round;stroke-linejoin:round;stroke-opacity:1"/>
      <circle r="0.5" cy="1802.9257" cx="-483.39914" id="circle7161" style="fill:#ed4a4b;fill-opacity:1;stroke:none;stroke-linecap:round;stroke-linejoin:round;stroke-opacity:1"/>
      <circle r="0.5" cy="1787.9257" cx="-451.39914" id="circle7163" style="fill:#fecb5b;fill-opacity:1;stroke:none;stroke-linecap:round;stroke-linejoin:round;stroke-opacity:1"/>
      <circle r="0.5" cy="1756.9255" cx="-475.39914" id="circle7165" style="fill:#3a90cd;fill-opacity:1;stroke:none;stroke-linecap:round;stroke-linejoin:round;stroke-opacity:1"/>
      <circle r="0.5" cy="1756.9255" cx="-456.39914" id="circle7167" style="fill:#ed4a4b;fill-opacity:1;stroke:none;stroke-linecap:round;stroke-linejoin:round;stroke-opacity:1"/>
    </g>
  </g>

	
	
	<metadata>
		<rdf:RDF xmlns:rdf="http://www.w3.org/1999/02/22-rdf-syntax-ns#" xmlns:rdfs="http://www.w3.org/2000/01/rdf-schema#" xmlns:dc="http://purl.org/dc/elements/1.1/">
			<rdf:Description about="https://iconscout.com/legal#licenses" dc:title="Party" dc:description="Party" dc:publisher="Iconscout" dc:date="2016-12-21" dc:format="image/svg+xml" dc:language="en">
				<dc:creator>
					<rdf:Bag>
						<rdf:li>Jemis Mali</rdf:li>
					</rdf:Bag>
				</dc:creator>
			</rdf:Description>
		</rdf:RDF>
    </metadata></svg>
